<?xml version="1.0" standalone="no"?>
<!DOCTYPE svg PUBLIC "-//W3C//DTD SVG 20010904//EN"
 "http://www.w3.org/TR/2001/REC-SVG-20010904/DTD/svg10.dtd">
<svg version="1.0" xmlns="http://www.w3.org/2000/svg"
 width="260.000000pt" height="260.000000pt" viewBox="0 0 260.000000 260.000000"
 preserveAspectRatio="xMidYMid meet">
<metadata>
Created by potrace 1.14, written by Peter Selinger 2001-2017
</metadata>
<g transform="translate(0.000000,260.000000) scale(0.100000,-0.100000)"
fill="#000000" stroke="none">
<path d="M0 1300 l0 -1300 1300 0 1300 0 0 1300 0 1300 -1300 0 -1300 0 0
-1300z m1208 954 c29 -20 32 -94 4 -94 -26 0 -45 -35 -27 -50 19 -16 19 -34 1
-49 -18 -15 -40 11 -33 40 12 45 -7 66 -66 72 -46 6 -61 3 -103 -19 -121 -64
-134 -99 -145 -414 -9 -263 -5 -292 46 -348 49 -55 175 -115 253 -120 l62 -4
0 -49 0 -49 -37 0 c-43 0 -191 18 -248 30 -21 5 -42 7 -44 4 -3 -2 3 -18 12
-33 29 -49 17 -77 -22 -52 -10 6 -12 20 -8 48 6 35 3 43 -23 68 -17 16 -35 47
-41 70 -6 22 -15 58 -21 80 -6 22 -17 60 -25 85 -34 108 -26 377 16 525 45
155 49 163 115 208 33 22 77 47 96 54 52 18 210 17 238 -3z m340 -641 c-5
-116 -21 -184 -54 -223 -7 -8 -25 -46 -40 -83 -15 -38 -32 -70 -38 -71 -6 -2
-27 -8 -46 -15 -19 -7 -47 -16 -62 -21 l-28 -9 0 54 c0 52 1 54 44 79 66 39
95 100 115 241 6 41 7 73 2 78 -15 15 -91 26 -182 27 -90 0 -106 -5 -88 -26
14 -17 4 -44 -16 -44 -22 0 -30 27 -14 47 11 13 11 17 1 21 -8 2 -10 8 -3 15
5 7 10 21 12 31 4 18 15 20 188 23 101 1 187 5 189 8 18 17 24 -27 20 -132z
m-91 -435 c-4 -13 3 -37 18 -62 29 -52 43 -110 24 -104 -8 3 -13 15 -11 28 1
13 -9 43 -24 67 -17 30 -24 52 -20 69 4 13 9 24 12 24 4 0 4 -10 1 -22z m-43
-140 c9 -33 8 -38 -8 -38 -20 0 -29 16 -21 40 8 26 21 25 29 -2z m-197 -502
c-8 -20 -36 -21 -43 -1 -4 8 0 22 7 31 11 13 14 13 27 0 8 -8 12 -22 9 -30z
m88 -59 c39 -8 120 -20 180 -27 61 -6 126 -15 145 -20 19 -5 82 -14 140 -20
290 -29 323 -44 301 -141 -26 -114 -65 -159 -138 -159 -24 0 -54 -7 -66 -15
-13 -8 -54 -19 -92 -25 -107 -15 -560 -12 -700 5 -66 8 -150 15 -186 15 -162
0 -354 62 -396 127 -22 33 -24 134 -4 180 15 36 60 68 124 89 60 20 592 13
692 -9z"/>
<path d="M933 456 c-23 -8 -76 -17 -117 -21 -99 -9 -140 -34 -144 -89 -5 -59
4 -82 43 -105 19 -11 35 -16 35 -11 0 5 -13 16 -30 25 -16 8 -32 26 -36 39
-19 79 24 120 138 131 40 3 88 11 107 17 19 6 57 14 85 18 l51 8 -45 0 c-25 0
-64 -5 -87 -12z"/>
<path d="M1120 397 c-51 -25 -59 -46 -36 -101 23 -55 68 -78 144 -74 41 3 67
9 73 19 15 24 10 65 -12 93 -21 27 -101 86 -116 86 -4 -1 -28 -11 -53 -23z
m163 -79 c29 -39 17 -75 -29 -84 -80 -15 -143 16 -164 82 -14 42 -8 51 44 74
l41 18 44 -32 c24 -17 53 -43 64 -58z"/>
<path d="M1180 315 c0 -8 7 -15 15 -15 8 0 15 4 15 9 0 5 -7 11 -15 15 -9 3
-15 0 -15 -9z"/>
<path d="M1686 382 c15 -11 23 -33 27 -67 3 -27 9 -64 12 -80 6 -26 1 -36 -31
-68 -20 -20 -35 -39 -33 -42 3 -2 23 13 44 35 l39 39 -12 64 c-7 36 -12 76
-12 90 0 16 -8 30 -19 37 -30 16 -38 11 -15 -8z"/>
</g>
</svg>
